<svg width="230" height="244" viewBox="0 0 230 244" fill="none" xmlns="http://www.w3.org/2000/svg">
<rect width="230" height="243.614" rx="50" fill="#C9E1F3"/>
<path d="M101.028 84.9065H0V243.614H189.159V36.1837H101.028V84.9065Z" fill="white"/>
<path d="M101.386 98.8784H56.6043V110.701L86.3395 116.433V126.106H101.386V98.8784Z" fill="#C48F07" fill-opacity="0.38"/>
<path d="M11.4641 147.243V98.8784L25.7943 110.701V129.688L76.6666 133.987V147.243H11.4641Z" fill="#C48F07" fill-opacity="0.38"/>
<path d="M25.7943 167.305L11.4641 158.349V192.383H81.3239V158.349L66.2772 167.305V180.561H25.7943V167.305Z" fill="#C48F07" fill-opacity="0.38"/>
<path d="M11.4641 232.866V210.296L25.7943 204.564V219.611H92.7881L101.386 232.866H11.4641Z" fill="#C48F07" fill-opacity="0.38"/>
<path d="M101.386 98.8784H56.6043V110.701L86.3395 116.433V126.106H101.386V98.8784Z" stroke="black"/>
<path d="M11.4641 147.243V98.8784L25.7943 110.701V129.688L76.6666 133.987V147.243H11.4641Z" stroke="black"/>
<path d="M25.7943 167.305L11.4641 158.349V192.383H81.3239V158.349L66.2772 167.305V180.561H25.7943V167.305Z" stroke="black"/>
<path d="M11.4641 232.866V210.296L25.7943 204.564V219.611H92.7881L101.386 232.866H11.4641Z" stroke="black"/>
<path d="M111.776 45.8568H181.636V123.598V150.109V236.449H111.776V173.037V93.863V45.8568Z" fill="#8CA466" fill-opacity="0.4"/>
<path d="M111.776 45.8568H181.636M111.776 45.8568L126.483 85.9814M111.776 45.8568V93.863M181.636 45.8568L126.483 85.9814M181.636 45.8568V123.598M181.636 45.8568L154.059 104.79M181.636 236.449H111.776M181.636 236.449L145.261 137.212M181.636 236.449L128.518 186.83M181.636 236.449V150.109M111.776 236.449V173.037M111.776 236.449L128.518 186.83M126.483 85.9814L154.059 104.79M126.483 85.9814L111.776 93.863M126.483 85.9814L145.261 137.212M181.636 123.598L154.059 104.79M181.636 123.598V150.109M111.776 93.863V173.037M111.776 93.863L145.261 137.212M145.261 137.212L111.776 173.037M145.261 137.212L128.518 186.83M145.261 137.212L181.636 150.109" stroke="black" stroke-width="2"/>
</svg>
