<svg width="2754" height="2594" viewBox="0 0 2754 2594" fill="none" xmlns="http://www.w3.org/2000/svg">
<path d="M1243.36 2364.59L7.99998 2106.9L442.694 23L638.437 595.458M1243.36 2364.59L1905.26 1565.04M1243.36 2364.59L1408.57 1686.42M1243.36 2364.59L1067.37 1849.9M2730.07 568.698L2238.59 1162.39M1607.67 266.011L2046.25 889.124M2238.59 1162.39L1905.26 1565.04M2238.59 1162.39L2046.25 889.124M1905.26 1565.04L2046.25 889.124M1905.26 1565.04L1517.11 1240.85M1905.26 1565.04L1408.57 1686.42M2046.25 889.124L1571.79 790.152M2046.25 889.124L1517.11 1240.85M638.437 595.458L799.298 1065.9M638.437 595.458L1189.18 710.34M799.298 1065.9L1042.3 844.287M799.298 1065.9L974.222 1577.47M1189.18 710.34L1042.3 844.287M1189.18 710.34L1571.79 790.152M1189.18 710.34L1517.11 1240.85M1042.3 844.287L974.222 1577.47M1042.3 844.287L1517.11 1240.85M980.978 1597.23L974.222 1577.47M980.978 1597.23L1571.79 790.152M980.978 1597.23L1517.11 1240.85M980.978 1597.23L1067.37 1849.9M1517.11 1240.85L1462.84 1463.64M1408.57 1686.42L1462.84 1463.64M1462.84 1463.64L1067.37 1849.9" stroke="#A7C0CA" stroke-width="12"/>
</svg>
