<svg width="2825" height="4730" viewBox="0 0 2825 4730" fill="none" xmlns="http://www.w3.org/2000/svg">
<path d="M1314.36 2364.59L79.0002 2106.9L513.694 23L709.437 595.458M1314.36 2364.59L1976.26 1565.04M1314.36 2364.59L1479.57 1686.42M1314.36 2364.59L1138.37 1849.9M2801.07 568.698L2309.59 1162.39M1678.67 266.011L2117.25 889.124M2309.59 1162.39L1976.26 1565.04M2309.59 1162.39L2117.25 889.124M1976.26 1565.04L2117.25 889.124M1976.26 1565.04L1588.11 1240.85M1976.26 1565.04L1479.57 1686.42M2117.25 889.124L1642.79 790.152M2117.25 889.124L1588.11 1240.85M709.437 595.458L870.298 1065.9M709.437 595.458L1260.18 710.34M870.298 1065.9L1113.3 844.287M870.298 1065.9L1045.22 1577.47M1260.18 710.34L1113.3 844.287M1260.18 710.34L1642.79 790.152M1260.18 710.34L1588.11 1240.85M1113.3 844.287L1045.22 1577.47M1113.3 844.287L1588.11 1240.85M1051.98 1597.23L1045.22 1577.47M1051.98 1597.23L1642.79 790.152M1051.98 1597.23L1588.11 1240.85M1051.98 1597.23L1138.37 1849.9M1588.11 1240.85L1533.84 1463.64M1479.57 1686.42L1533.84 1463.64M1533.84 1463.64L1138.37 1849.9" stroke="black" stroke-opacity="0.05" stroke-width="12"/>
<path d="M1243.36 4500.59L8.00022 4242.9L442.694 2159L638.437 2731.46M1243.36 4500.59L1905.26 3701.04M1243.36 4500.59L1408.57 3822.42M1243.36 4500.59L1067.37 3985.9M2730.07 2704.7L2238.59 3298.39M1607.67 2402.01L2046.25 3025.12M2238.59 3298.39L1905.26 3701.04M2238.59 3298.39L2046.25 3025.12M1905.26 3701.04L2046.25 3025.12M1905.26 3701.04L1517.11 3376.85M1905.26 3701.04L1408.57 3822.42M2046.25 3025.12L1571.79 2926.15M2046.25 3025.12L1517.11 3376.85M638.437 2731.46L799.298 3201.9M638.437 2731.46L1189.18 2846.34M799.298 3201.9L1042.3 2980.29M799.298 3201.9L974.223 3713.47M1189.18 2846.34L1042.3 2980.29M1189.18 2846.34L1571.79 2926.15M1189.18 2846.34L1517.11 3376.85M1042.3 2980.29L974.223 3713.47M1042.3 2980.29L1517.11 3376.85M980.978 3733.23L974.223 3713.47M980.978 3733.23L1571.79 2926.15M980.978 3733.23L1517.11 3376.85M980.978 3733.23L1067.37 3985.9M1517.11 3376.85L1462.84 3599.64M1408.57 3822.42L1462.84 3599.64M1462.84 3599.64L1067.37 3985.9" stroke="white" stroke-opacity="0.1" stroke-width="12"/>
</svg>
