<svg width="1440" height="900" viewBox="0 0 1440 900" fill="none" xmlns="http://www.w3.org/2000/svg">
<path d="M487.365 1711.59L-748 1453.9L-313.306 -630L-117.563 -57.5422M487.365 1711.59L1149.26 912.043M487.365 1711.59L652.568 1033.42M487.365 1711.59L311.373 1196.9M1974.07 -84.3018L1482.59 509.388M851.673 -386.989L1290.25 236.124M1482.59 509.388L1149.26 912.043M1482.59 509.388L1290.25 236.124M1149.26 912.043L1290.25 236.124M1149.26 912.043L761.11 587.854M1149.26 912.043L652.568 1033.42M1290.25 236.124L815.787 137.152M1290.25 236.124L761.11 587.854M-117.563 -57.5422L43.2983 412.901M-117.563 -57.5422L433.176 57.3401M43.2983 412.901L286.302 191.287M43.2983 412.901L218.223 924.474M433.176 57.3401L286.302 191.287M433.176 57.3401L815.787 137.152M433.176 57.3401L761.11 587.854M286.302 191.287L218.223 924.474M286.302 191.287L761.11 587.854M224.978 944.23L218.223 924.474M224.978 944.23L815.787 137.152M224.978 944.23L761.11 587.854M224.978 944.23L311.373 1196.9M761.11 587.854L706.838 810.639M652.568 1033.42L706.838 810.639M706.838 810.639L311.373 1196.9" stroke="#A1BCC7" stroke-opacity="0.8" stroke-width="12"/>
</svg>
